<?xml version="1.0" encoding="utf-8"?>
<!-- Generator: Adobe Illustrator 16.0.4, SVG Export Plug-In . SVG Version: 6.00 Build 0)  -->
<!DOCTYPE svg PUBLIC "-//W3C//DTD SVG 1.1//EN" "http://www.w3.org/Graphics/SVG/1.1/DTD/svg11.dtd">
<svg version="1.1" id="Layer_1" xmlns="http://www.w3.org/2000/svg" xmlns:xlink="http://www.w3.org/1999/xlink" x="0px" y="0px"
	 width="95px" height="55px" viewBox="0 0 95 55" enable-background="new 0 0 95 55" xml:space="preserve">
<title>Fill 16</title>
<desc>Created with Sketch.</desc>
<g id="Page-1">
	<g id="EPS" transform="translate(0.000000, -700.000000)">
		<path id="Fill-16" fill="#FFFFFF" d="M40.404,727.075c0,7.348-5.981,13.33-13.334,13.33c-7.352,0-13.334-5.982-13.334-13.33
			c0-7.353,5.982-13.334,13.334-13.334c2.671,0,5.245,0.783,7.44,2.263l0.713,0.481l0.183-0.841
			c1.271-5.743,4.207-9.671,5.41-11.094l0.448-0.53l-0.6-0.348c-4.115-2.4-8.816-3.672-13.594-3.672C12.145,700,0,712.146,0,727.075
			C0,742,12.145,754.145,27.07,754.145c14.925,0,27.071-12.145,27.071-27.069c0-7.353,5.98-13.334,13.334-13.334
			c7.356,0,13.342,5.981,13.342,13.334c0,7.348-5.985,13.33-13.342,13.33c-5.322,0-7.526-1.313-9.205-3.289l-0.869-1.028
			l-0.155,1.335c-0.146,1.275-1.888,6.776-5.743,9.933l-0.512,0.42l0.475,0.457c4.678,4.477,8.564,5.912,16.01,5.912
			c14.924,0,27.069-12.145,27.069-27.069c0-14.929-12.146-27.075-27.069-27.075C52.549,700,40.404,712.146,40.404,727.075z"/>
	</g>
</g>
</svg>
